<svg xmlns="http://www.w3.org/2000/svg" width="561" height="62" viewBox="0 0 561 62"><rect width="561" height="62" rx="10" fill="#262624"/><svg xmlns="http://www.w3.org/2000/svg" width="100%" height="100%" shape-rendering="crispEdges"><defs><g id="clawd-sprite"><g transform="scale(2.25)"><g transform="translate(-35 0)"><animateTransform attributeName="transform" type="translate" values="-35 0;-35 0" keyTimes="0;1" dur="0.83333s" begin="0s" calcMode="linear" fill="freeze"/><animateTransform attributeName="transform" type="translate" values="-35 0;-35 0" keyTimes="0;1" dur="1s" begin="0.83333s" calcMode="linear" repeatCount="indefinite"/><g><g visibility="visible"><animate attributeName="visibility" values="visible;hidden" keyTimes="0;0.1" dur="0.83333s" begin="0s" calcMode="discrete" fill="freeze"/><animate attributeName="visibility" values="hidden" keyTimes="0" dur="1s" begin="0.83333s" calcMode="discrete" repeatCount="indefinite"/><path fill="#d87656" d="M14 19h2v4h-2zM18 19h2v4h-2zM24 19h2v4h-2zM28 19h2v4h-2zM14 15h16v4h-16zM14 11h16v4h-16zM10 11h4v4h-4zM30 11h4v4h-4zM14 7h16v4h-16z"/><path fill="#000000" d="M16 9h2v2h-2zM26 9h2v2h-2z"/><path fill="#8b8b8b" d="M12 13h20v8h-20z"/><path fill="#6e6e6e" d="M12 13h20v1h-20z"/><path fill="#d9d9d9" d="M21 16h2v2h-2z"/></g><g visibility="hidden"><animate attributeName="visibility" values="hidden;visible;hidden" keyTimes="0;0.1;0.2" dur="0.83333s" begin="0s" calcMode="discrete" fill="freeze"/><animate attributeName="visibility" values="hidden" keyTimes="0" dur="1s" begin="0.83333s" calcMode="discrete" repeatCount="indefinite"/><path fill="#d87656" d="M14 19h2v4h-2zM18 19h2v4h-2zM24 19h2v4h-2zM28 19h2v4h-2zM14 15h16v4h-16zM14 11h16v4h-16zM10 11h4v4h-4zM30 11h4v4h-4zM14 7h16v4h-16z"/><path fill="#000000" d="M16 9h2v2h-2zM26 9h2v2h-2z"/><path fill="#8b8b8b" d="M12 14h20v7h-20z"/><path fill="#6e6e6e" d="M12 14h20v1h-20z"/><path fill="#d9d9d9" d="M21 16h2v2h-2z"/></g><g visibility="hidden"><animate attributeName="visibility" values="hidden;visible;hidden" keyTimes="0;0.2;0.3" dur="0.83333s" begin="0s" calcMode="discrete" fill="freeze"/><animate attributeName="visibility" values="hidden" keyTimes="0" dur="1s" begin="0.83333s" calcMode="discrete" repeatCount="indefinite"/><path fill="#d87656" d="M14 19h2v4h-2zM18 19h2v4h-2zM24 19h2v4h-2zM28 19h2v4h-2zM14 15h16v4h-16zM14 11h16v4h-16zM10 11h4v4h-4zM30 11h4v4h-4zM14 7h16v4h-16z"/><path fill="#000000" d="M16 9h2v2h-2zM26 9h2v2h-2z"/><path fill="#8b8b8b" d="M12 15h20v5h-20z"/><path fill="#6e6e6e" d="M12 15h20v1h-20z"/></g><g visibility="hidden"><animate attributeName="visibility" values="hidden;visible;hidden" keyTimes="0;0.3;0.4" dur="0.83333s" begin="0s" calcMode="discrete" fill="freeze"/><animate attributeName="visibility" values="hidden" keyTimes="0" dur="1s" begin="0.83333s" calcMode="discrete" repeatCount="indefinite"/><path fill="#d87656" d="M14 19h2v4h-2zM18 19h2v4h-2zM24 19h2v4h-2zM28 19h2v4h-2zM14 15h16v4h-16zM14 11h16v4h-16zM10 11h4v4h-4zM30 11h4v4h-4zM14 7h16v4h-16z"/><path fill="#000000" d="M16 9h2v2h-2zM26 9h2v2h-2z"/><path fill="#8b8b8b" d="M12 16h20v3h-20z"/><path fill="#6e6e6e" d="M12 16h20v1h-20z"/></g><g visibility="hidden"><animate attributeName="visibility" values="hidden;visible;hidden" keyTimes="0;0.4;0.6" dur="0.83333s" begin="0s" calcMode="discrete" fill="freeze"/><animate attributeName="visibility" values="hidden" keyTimes="0" dur="1s" begin="0.83333s" calcMode="discrete" repeatCount="indefinite"/><path fill="#d87656" d="M14 19h2v4h-2zM18 19h2v4h-2zM24 19h2v4h-2zM28 19h2v4h-2zM14 15h16v4h-16zM14 11h16v4h-16zM10 11h4v4h-4zM30 11h4v4h-4zM14 7h16v4h-16z"/><path fill="#000000" d="M16 10h2v1h-2zM26 10h2v1h-2z"/><path fill="#8b8b8b" d="M12 17h20v2h-20z"/><path fill="#6e6e6e" d="M12 18h20v1h-20z"/></g><g visibility="hidden"><animate attributeName="visibility" values="hidden;visible;hidden" keyTimes="0;0.6;0.8" dur="0.83333s" begin="0s" calcMode="discrete" fill="freeze"/><animate attributeName="visibility" values="hidden" keyTimes="0" dur="1s" begin="0.83333s" calcMode="discrete" repeatCount="indefinite"/><path fill="#d87656" d="M14 19h2v4h-2zM18 19h2v4h-2zM24 19h2v4h-2zM28 19h2v4h-2zM14 15h16v4h-16zM14 11h16v4h-16zM10 12h4v4h-4zM30 12h4v4h-4zM14 7h16v4h-16z"/><path fill="#000000" d="M16 10h2v1h-2zM26 10h2v1h-2z"/><path fill="#8b8b8b" d="M12 19h20v2h-20z"/><path fill="#6e6e6e" d="M12 20h20v1h-20z"/></g><g visibility="hidden"><animate attributeName="visibility" values="hidden;visible" keyTimes="0;0.8" dur="0.83333s" begin="0s" calcMode="discrete" fill="freeze"/><animate attributeName="visibility" values="hidden" keyTimes="0" dur="1s" begin="0.83333s" calcMode="discrete" repeatCount="indefinite"/><path fill="#d87656" d="M14 19h2v4h-2zM18 19h2v4h-2zM24 19h2v4h-2zM28 19h2v4h-2zM14 15h16v4h-16zM14 11h16v4h-16zM10 11h4v4h-4zM30 11h4v4h-4zM14 7h16v4h-16z"/><path fill="#000000" d="M16 9h2v2h-2zM26 9h2v2h-2z"/></g><g visibility="hidden"><animate attributeName="visibility" values="hidden" keyTimes="0" dur="0.83333s" begin="0s" calcMode="discrete" fill="freeze"/><animate attributeName="visibility" values="visible" keyTimes="0" dur="1s" begin="0.83333s" calcMode="discrete" repeatCount="indefinite"/><g transform="translate(0 0)"><animateTransform attributeName="transform" type="translate" values="0 0" keyTimes="0" dur="0.83333s" begin="0s" calcMode="discrete" fill="freeze"/><animateTransform attributeName="transform" type="translate" values="0 0;0 -2;0 -4;0 -5;0 -5.5;0 -5;0 -4;0 -2;0 0;0 -2;0 -4;0 -5;0 -5.5;0 -5;0 -4;0 -2;0 0" keyTimes="0;0.05556;0.11111;0.16667;0.22222;0.27778;0.33333;0.38889;0.44444;0.55556;0.61111;0.66667;0.72222;0.77778;0.83333;0.88889;0.94444" dur="1s" begin="0.83333s" calcMode="discrete" repeatCount="indefinite"/><g transform="translate(0 0)"><animateTransform attributeName="transform" type="translate" values="0 0" keyTimes="0" dur="0.83333s" begin="0s" calcMode="discrete" fill="freeze"/><animateTransform attributeName="transform" type="translate" values="0 0" keyTimes="0" dur="1s" begin="0.83333s" calcMode="discrete" repeatCount="indefinite"/><rect x="14" y="17" width="2" height="6" fill="#D87656"></rect><rect x="24" y="17" width="2" height="6" fill="#D87656"></rect></g><g transform="translate(0 0)"><animateTransform attributeName="transform" type="translate" values="0 0" keyTimes="0" dur="0.83333s" begin="0s" calcMode="discrete" fill="freeze"/><animateTransform attributeName="transform" type="translate" values="0 0" keyTimes="0" dur="1s" begin="0.83333s" calcMode="discrete" repeatCount="indefinite"/><rect x="18" y="17" width="2" height="6" fill="#D87656"></rect><rect x="28" y="17" width="2" height="6" fill="#D87656"></rect></g><g transform="translate(0 0)"><animateTransform attributeName="transform" type="translate" values="0 0" keyTimes="0" dur="0.83333s" begin="0s" calcMode="discrete" fill="freeze"/><animateTransform attributeName="transform" type="translate" values="0 0" keyTimes="0" dur="1s" begin="0.83333s" calcMode="discrete" repeatCount="indefinite"/><g visibility="hidden"><animate attributeName="visibility" values="hidden" keyTimes="0" dur="0.83333s" begin="0s" calcMode="discrete" fill="freeze"/><animate attributeName="visibility" values="visible" keyTimes="0" dur="1s" begin="0.83333s" calcMode="discrete" repeatCount="indefinite"/><rect x="14" y="7" width="16" height="4" fill="#D87656"></rect><rect x="10" y="11" width="24" height="4" fill="#D87656"></rect><rect x="14" y="15" width="16" height="4" fill="#D87656"></rect></g><g transform="translate(0 0)"><animateTransform attributeName="transform" type="translate" values="0 0" keyTimes="0" dur="0.83333s" begin="0s" calcMode="discrete" fill="freeze"/><animateTransform attributeName="transform" type="translate" values="0 0" keyTimes="0" dur="1s" begin="0.83333s" calcMode="discrete" repeatCount="indefinite"/><g visibility="hidden"><animate attributeName="visibility" values="hidden" keyTimes="0" dur="0.83333s" begin="0s" calcMode="discrete" fill="freeze"/><animate attributeName="visibility" values="visible" keyTimes="0" dur="1s" begin="0.83333s" calcMode="discrete" repeatCount="indefinite"/><rect x="15" y="10" width="1" height="1" fill="#000000"></rect><rect x="16" y="9" width="2" height="1" fill="#000000"></rect><rect x="18" y="10" width="1" height="1" fill="#000000"></rect><rect x="25" y="10" width="1" height="1" fill="#000000"></rect><rect x="26" y="9" width="2" height="1" fill="#000000"></rect><rect x="28" y="10" width="1" height="1" fill="#000000"></rect></g></g></g></g></g><g visibility="hidden"><animate attributeName="visibility" values="hidden" keyTimes="0" dur="0.83333s" begin="0s" calcMode="discrete" fill="freeze"/><animate attributeName="visibility" values="visible" keyTimes="0" dur="1s" begin="0.83333s" calcMode="discrete" repeatCount="indefinite"/><rect x="-14" y="-2" width="1.5" height="1.5" fill="#ffd166"><animateTransform attributeName="transform" type="translate" values="0 0;-1 27" dur="1.3s" begin="0s" repeatCount="indefinite"/></rect><rect x="-9" y="-2" width="1.5" height="1.5" fill="#06d6a0"><animateTransform attributeName="transform" type="translate" values="0 0;0 27" dur="1.55s" begin="0.18s" repeatCount="indefinite"/></rect><rect x="-4" y="-2" width="1.5" height="1.5" fill="#118ab2"><animateTransform attributeName="transform" type="translate" values="0 0;1 27" dur="1.8s" begin="0.36s" repeatCount="indefinite"/></rect><rect x="1" y="-2" width="1.5" height="1.5" fill="#ef476f"><animateTransform attributeName="transform" type="translate" values="0 0;-1 27" dur="2.05s" begin="0.54s" repeatCount="indefinite"/></rect><rect x="6" y="-2" width="1.5" height="1.5" fill="#D87656"><animateTransform attributeName="transform" type="translate" values="0 0;0 27" dur="1.3s" begin="0.72s" repeatCount="indefinite"/></rect><rect x="11" y="-2" width="1.5" height="1.5" fill="#c77dff"><animateTransform attributeName="transform" type="translate" values="0 0;1 27" dur="1.55s" begin="0s" repeatCount="indefinite"/></rect><rect x="16" y="-2" width="1.5" height="1.5" fill="#ffd166"><animateTransform attributeName="transform" type="translate" values="0 0;-1 27" dur="1.8s" begin="0.18s" repeatCount="indefinite"/></rect><rect x="21" y="-2" width="1.5" height="1.5" fill="#06d6a0"><animateTransform attributeName="transform" type="translate" values="0 0;0 27" dur="2.05s" begin="0.36s" repeatCount="indefinite"/></rect><rect x="26" y="-2" width="1.5" height="1.5" fill="#118ab2"><animateTransform attributeName="transform" type="translate" values="0 0;1 27" dur="1.3s" begin="0.54s" repeatCount="indefinite"/></rect><rect x="31" y="-2" width="1.5" height="1.5" fill="#ef476f"><animateTransform attributeName="transform" type="translate" values="0 0;-1 27" dur="1.55s" begin="0.72s" repeatCount="indefinite"/></rect><rect x="36" y="-2" width="1.5" height="1.5" fill="#D87656"><animateTransform attributeName="transform" type="translate" values="0 0;0 27" dur="1.8s" begin="0s" repeatCount="indefinite"/></rect><rect x="41" y="-2" width="1.5" height="1.5" fill="#c77dff"><animateTransform attributeName="transform" type="translate" values="0 0;1 27" dur="2.05s" begin="0.18s" repeatCount="indefinite"/></rect><rect x="46" y="-2" width="1.5" height="1.5" fill="#ffd166"><animateTransform attributeName="transform" type="translate" values="0 0;-1 27" dur="1.3s" begin="0.36s" repeatCount="indefinite"/></rect><rect x="51" y="-2" width="1.5" height="1.5" fill="#06d6a0"><animateTransform attributeName="transform" type="translate" values="0 0;0 27" dur="1.55s" begin="0.54s" repeatCount="indefinite"/></rect></g></g></g></g></g></defs><use href="#clawd-sprite" x="100%" y="10.25"><animate attributeName="x" values="100%;100%" keyTimes="0;1" dur="0.83333s" begin="0s" calcMode="linear" fill="freeze"/><animate attributeName="x" values="100%;100%" keyTimes="0;1" dur="1s" begin="0.83333s" calcMode="linear" repeatCount="indefinite"/></use></svg></svg>