<svg xmlns="http://www.w3.org/2000/svg" width="561" height="62" viewBox="0 0 561 62"><rect width="561" height="62" rx="10" fill="#262624"/><svg xmlns="http://www.w3.org/2000/svg" width="100%" height="100%" shape-rendering="crispEdges"><rect x="2%" y="-8" width="1.2" height="6" fill="#8ab4f8" opacity="0.55"><animateTransform attributeName="transform" type="translate" values="0 0;-3 74" dur="0.75s" begin="-15s" repeatCount="indefinite"/></rect><rect x="6.5%" y="-8" width="1.2" height="6" fill="#8ab4f8" opacity="0.55"><animateTransform attributeName="transform" type="translate" values="0 0;-3 74" dur="0.87s" begin="-15.37s" repeatCount="indefinite"/></rect><rect x="11%" y="-8" width="1.2" height="6" fill="#8ab4f8" opacity="0.55"><animateTransform attributeName="transform" type="translate" values="0 0;-3 74" dur="0.99s" begin="-15.74s" repeatCount="indefinite"/></rect><rect x="15.5%" y="-8" width="1.2" height="6" fill="#8ab4f8" opacity="0.55"><animateTransform attributeName="transform" type="translate" values="0 0;-3 74" dur="0.75s" begin="-15.36s" repeatCount="indefinite"/></rect><rect x="20%" y="-8" width="1.2" height="6" fill="#8ab4f8" opacity="0.55"><animateTransform attributeName="transform" type="translate" values="0 0;-3 74" dur="0.87s" begin="-15.61s" repeatCount="indefinite"/></rect><rect x="24.5%" y="-8" width="1.2" height="6" fill="#8ab4f8" opacity="0.55"><animateTransform attributeName="transform" type="translate" values="0 0;-3 74" dur="0.99s" begin="-15.86s" repeatCount="indefinite"/></rect><rect x="29%" y="-8" width="1.2" height="6" fill="#8ab4f8" opacity="0.55"><animateTransform attributeName="transform" type="translate" values="0 0;-3 74" dur="0.75s" begin="-15.72s" repeatCount="indefinite"/></rect><rect x="33.5%" y="-8" width="1.2" height="6" fill="#8ab4f8" opacity="0.55"><animateTransform attributeName="transform" type="translate" values="0 0;-3 74" dur="0.87s" begin="-15.85s" repeatCount="indefinite"/></rect><rect x="38%" y="-8" width="1.2" height="6" fill="#8ab4f8" opacity="0.55"><animateTransform attributeName="transform" type="translate" values="0 0;-3 74" dur="0.99s" begin="-15.98s" repeatCount="indefinite"/></rect><rect x="42.5%" y="-8" width="1.2" height="6" fill="#8ab4f8" opacity="0.55"><animateTransform attributeName="transform" type="translate" values="0 0;-3 74" dur="0.75s" begin="-15.33s" repeatCount="indefinite"/></rect><rect x="47%" y="-8" width="1.2" height="6" fill="#8ab4f8" opacity="0.55"><animateTransform attributeName="transform" type="translate" values="0 0;-3 74" dur="0.87s" begin="-15.22s" repeatCount="indefinite"/></rect><rect x="51.5%" y="-8" width="1.2" height="6" fill="#8ab4f8" opacity="0.55"><animateTransform attributeName="transform" type="translate" values="0 0;-3 74" dur="0.99s" begin="-15.11s" repeatCount="indefinite"/></rect><rect x="56%" y="-8" width="1.2" height="6" fill="#8ab4f8" opacity="0.55"><animateTransform attributeName="transform" type="translate" values="0 0;-3 74" dur="0.75s" begin="-15.69s" repeatCount="indefinite"/></rect><rect x="60.5%" y="-8" width="1.2" height="6" fill="#8ab4f8" opacity="0.55"><animateTransform attributeName="transform" type="translate" values="0 0;-3 74" dur="0.87s" begin="-15.46s" repeatCount="indefinite"/></rect><rect x="65%" y="-8" width="1.2" height="6" fill="#8ab4f8" opacity="0.55"><animateTransform attributeName="transform" type="translate" values="0 0;-3 74" dur="0.99s" begin="-15.23s" repeatCount="indefinite"/></rect><rect x="69.5%" y="-8" width="1.2" height="6" fill="#8ab4f8" opacity="0.55"><animateTransform attributeName="transform" type="translate" values="0 0;-3 74" dur="0.75s" begin="-15.3s" repeatCount="indefinite"/></rect><rect x="74%" y="-8" width="1.2" height="6" fill="#8ab4f8" opacity="0.55"><animateTransform attributeName="transform" type="translate" values="0 0;-3 74" dur="0.87s" begin="-15.7s" repeatCount="indefinite"/></rect><rect x="78.5%" y="-8" width="1.2" height="6" fill="#8ab4f8" opacity="0.55"><animateTransform attributeName="transform" type="translate" values="0 0;-3 74" dur="0.99s" begin="-15.35s" repeatCount="indefinite"/></rect><rect x="83%" y="-8" width="1.2" height="6" fill="#8ab4f8" opacity="0.55"><animateTransform attributeName="transform" type="translate" values="0 0;-3 74" dur="0.75s" begin="-15.66s" repeatCount="indefinite"/></rect><rect x="87.5%" y="-8" width="1.2" height="6" fill="#8ab4f8" opacity="0.55"><animateTransform attributeName="transform" type="translate" values="0 0;-3 74" dur="0.87s" begin="-15.07s" repeatCount="indefinite"/></rect><rect x="92%" y="-8" width="1.2" height="6" fill="#8ab4f8" opacity="0.55"><animateTransform attributeName="transform" type="translate" values="0 0;-3 74" dur="0.99s" begin="-15.47s" repeatCount="indefinite"/></rect><rect x="96.5%" y="-8" width="1.2" height="6" fill="#8ab4f8" opacity="0.55"><animateTransform attributeName="transform" type="translate" values="0 0;-3 74" dur="0.75s" begin="-15.27s" repeatCount="indefinite"/></rect><svg x="14" y="0" width="100%" height="100%" overflow="visible"><svg x="100%" y="10.25" width="76.5" height="51.75" viewBox="0 0 34 23" overflow="visible"><animate attributeName="x" values="100%;100%;100%" keyTimes="0;0.4586;1" dur="2.61667s" begin="-15s" calcMode="linear" fill="freeze"/><animate attributeName="x" values="100%;100%" keyTimes="0;1" dur="0.25s" begin="-12.38333s" calcMode="linear" repeatCount="indefinite"/><g transform="translate(-41.22222 0)"><animateTransform attributeName="transform" type="translate" values="-41.22222 0;-41.22222 0;-41.22222 0" keyTimes="0;0.4586;1" dur="2.61667s" begin="-15s" calcMode="linear" fill="freeze"/><animateTransform attributeName="transform" type="translate" values="-41.22222 0;-41.22222 0" keyTimes="0;1" dur="0.25s" begin="-12.38333s" calcMode="linear" repeatCount="indefinite"/><g><g visibility="hidden"><animate attributeName="visibility" values="hidden;visible;hidden" keyTimes="0;0.4586;0.58599" dur="2.61667s" begin="-15s" calcMode="discrete" fill="freeze"/><animate attributeName="visibility" values="hidden" keyTimes="0" dur="0.25s" begin="-12.38333s" calcMode="discrete" repeatCount="indefinite"/><path fill="#d87656" d="M14 19h2v4h-2zM18 19h2v4h-2zM24 19h2v4h-2zM28 19h2v4h-2zM14 15h16v4h-16zM14 11h16v4h-16zM10 11h4v4h-4zM30 11h4v4h-4zM14 7h16v4h-16z"/><path fill="#000000" d="M16 9h2v2h-2zM26 9h2v2h-2z"/></g><g visibility="hidden"><animate attributeName="visibility" values="hidden;visible;hidden" keyTimes="0;0.58599;0.64968" dur="2.61667s" begin="-15s" calcMode="discrete" fill="freeze"/><animate attributeName="visibility" values="hidden" keyTimes="0" dur="0.25s" begin="-12.38333s" calcMode="discrete" repeatCount="indefinite"/><path fill="#d87656" d="M14 19h2v4h-2zM18 19h2v4h-2zM24 19h2v4h-2zM28 19h2v4h-2zM14 15h16v4h-16zM14 11h16v4h-16zM10 12h4v4h-4zM30 12h4v4h-4zM14 7h16v4h-16z"/><path fill="#000000" d="M16 10h2v1h-2zM26 10h2v1h-2z"/><path fill="#8b8b8b" d="M12 19h20v2h-20z"/><path fill="#6e6e6e" d="M12 20h20v1h-20z"/></g><g visibility="hidden"><animate attributeName="visibility" values="hidden;visible;hidden" keyTimes="0;0.64968;0.71338" dur="2.61667s" begin="-15s" calcMode="discrete" fill="freeze"/><animate attributeName="visibility" values="hidden" keyTimes="0" dur="0.25s" begin="-12.38333s" calcMode="discrete" repeatCount="indefinite"/><path fill="#d87656" d="M14 19h2v4h-2zM18 19h2v4h-2zM24 19h2v4h-2zM28 19h2v4h-2zM14 15h16v4h-16zM14 11h16v4h-16zM10 11h4v4h-4zM30 11h4v4h-4zM14 7h16v4h-16z"/><path fill="#000000" d="M16 10h2v1h-2zM26 10h2v1h-2z"/><path fill="#8b8b8b" d="M12 17h20v2h-20z"/><path fill="#6e6e6e" d="M12 18h20v1h-20z"/></g><g visibility="hidden"><animate attributeName="visibility" values="hidden;visible;hidden" keyTimes="0;0.71338;0.74522" dur="2.61667s" begin="-15s" calcMode="discrete" fill="freeze"/><animate attributeName="visibility" values="hidden" keyTimes="0" dur="0.25s" begin="-12.38333s" calcMode="discrete" repeatCount="indefinite"/><path fill="#d87656" d="M14 19h2v4h-2zM18 19h2v4h-2zM24 19h2v4h-2zM28 19h2v4h-2zM14 15h16v4h-16zM14 11h16v4h-16zM10 11h4v4h-4zM30 11h4v4h-4zM14 7h16v4h-16z"/><path fill="#000000" d="M16 9h2v2h-2zM26 9h2v2h-2z"/><path fill="#8b8b8b" d="M12 16h20v3h-20z"/><path fill="#6e6e6e" d="M12 16h20v1h-20z"/></g><g visibility="hidden"><animate attributeName="visibility" values="hidden;visible;hidden" keyTimes="0;0.74522;0.77707" dur="2.61667s" begin="-15s" calcMode="discrete" fill="freeze"/><animate attributeName="visibility" values="hidden" keyTimes="0" dur="0.25s" begin="-12.38333s" calcMode="discrete" repeatCount="indefinite"/><path fill="#d87656" d="M14 19h2v4h-2zM18 19h2v4h-2zM24 19h2v4h-2zM28 19h2v4h-2zM14 15h16v4h-16zM14 11h16v4h-16zM10 11h4v4h-4zM30 11h4v4h-4zM14 7h16v4h-16z"/><path fill="#000000" d="M16 9h2v2h-2zM26 9h2v2h-2z"/><path fill="#8b8b8b" d="M12 15h20v5h-20z"/><path fill="#6e6e6e" d="M12 15h20v1h-20z"/></g><g visibility="hidden"><animate attributeName="visibility" values="hidden;visible;hidden" keyTimes="0;0.77707;0.80892" dur="2.61667s" begin="-15s" calcMode="discrete" fill="freeze"/><animate attributeName="visibility" values="hidden" keyTimes="0" dur="0.25s" begin="-12.38333s" calcMode="discrete" repeatCount="indefinite"/><path fill="#d87656" d="M14 19h2v4h-2zM18 19h2v4h-2zM24 19h2v4h-2zM28 19h2v4h-2zM14 15h16v4h-16zM14 11h16v4h-16zM10 11h4v4h-4zM30 11h4v4h-4zM14 7h16v4h-16z"/><path fill="#000000" d="M16 9h2v2h-2zM26 9h2v2h-2z"/><path fill="#8b8b8b" d="M12 14h20v7h-20z"/><path fill="#6e6e6e" d="M12 14h20v1h-20z"/><path fill="#d9d9d9" d="M21 16h2v2h-2z"/></g><g visibility="hidden"><animate attributeName="visibility" values="hidden;visible;hidden" keyTimes="0;0.80892;0.90446" dur="2.61667s" begin="-15s" calcMode="discrete" fill="freeze"/><animate attributeName="visibility" values="hidden" keyTimes="0" dur="0.25s" begin="-12.38333s" calcMode="discrete" repeatCount="indefinite"/><path fill="#d87656" d="M14 19h2v4h-2zM18 19h2v4h-2zM24 19h2v4h-2zM28 19h2v4h-2zM14 15h16v4h-16zM14 11h16v4h-16zM10 11h4v4h-4zM30 11h4v4h-4zM14 7h16v4h-16z"/><path fill="#000000" d="M16 9h2v2h-2zM26 9h2v2h-2z"/><path fill="#8b8b8b" d="M12 13h20v8h-20z"/><path fill="#6e6e6e" d="M12 13h20v1h-20z"/><path fill="#d9d9d9" d="M21 16h2v2h-2z"/></g><g visibility="hidden"><animate attributeName="visibility" values="hidden;visible;hidden" keyTimes="0;0.90446;0.93631" dur="2.61667s" begin="-15s" calcMode="discrete" fill="freeze"/><animate attributeName="visibility" values="visible;hidden" keyTimes="0;0.33333" dur="0.25s" begin="-12.38333s" calcMode="discrete" repeatCount="indefinite"/><path fill="#d87656" d="M14 19h2v4h-2zM18 19h2v4h-2zM24 19h2v4h-2zM28 19h2v4h-2zM14 15h16v4h-16zM14 11h16v4h-16zM10 10h4v4h-4zM30 11h4v4h-4zM14 7h16v4h-16z"/><path fill="#000000" d="M16 10h2v1h-2zM26 10h2v1h-2z"/><path fill="#8b8b8b" d="M12 13h20v8h-20z"/><path fill="#6e6e6e" d="M12 13h20v1h-20z"/><path fill="#d9d9d9" d="M21 16h2v2h-2z"/></g><g visibility="visible"><animate attributeName="visibility" values="hidden;visible;hidden" keyTimes="0;0.93631;0.96815" dur="2.61667s" begin="-15s" calcMode="discrete" fill="freeze"/><animate attributeName="visibility" values="hidden;visible;hidden" keyTimes="0;0.33333;0.66667" dur="0.25s" begin="-12.38333s" calcMode="discrete" repeatCount="indefinite"/><path fill="#d87656" d="M14 19h2v4h-2zM18 19h2v4h-2zM24 19h2v4h-2zM28 19h2v4h-2zM14 15h16v4h-16zM14 11h16v4h-16zM10 11h4v4h-4zM30 11h4v4h-4zM14 7h16v4h-16z"/><path fill="#000000" d="M16 10h2v1h-2zM26 10h2v1h-2z"/><path fill="#8b8b8b" d="M12 13h20v8h-20z"/><path fill="#6e6e6e" d="M12 13h20v1h-20z"/><path fill="#d9d9d9" d="M21 16h2v2h-2z"/></g><g visibility="hidden"><animate attributeName="visibility" values="hidden;visible" keyTimes="0;0.96815" dur="2.61667s" begin="-15s" calcMode="discrete" fill="freeze"/><animate attributeName="visibility" values="hidden;visible" keyTimes="0;0.66667" dur="0.25s" begin="-12.38333s" calcMode="discrete" repeatCount="indefinite"/><path fill="#d87656" d="M14 19h2v4h-2zM18 19h2v4h-2zM24 19h2v4h-2zM28 19h2v4h-2zM14 15h16v4h-16zM14 11h16v4h-16zM10 11h4v4h-4zM30 10h4v4h-4zM14 7h16v4h-16z"/><path fill="#000000" d="M16 10h2v1h-2zM26 10h2v1h-2z"/><path fill="#8b8b8b" d="M12 13h20v8h-20z"/><path fill="#6e6e6e" d="M12 13h20v1h-20z"/><path fill="#d9d9d9" d="M21 16h2v2h-2z"/></g><g visibility="hidden"><animate attributeName="visibility" values="visible;hidden" keyTimes="0;0.4586" dur="2.61667s" begin="-15s" calcMode="discrete" fill="freeze"/><animate attributeName="visibility" values="hidden" keyTimes="0" dur="0.25s" begin="-12.38333s" calcMode="discrete" repeatCount="indefinite"/><g transform="translate(0 0)"><animateTransform attributeName="transform" type="translate" values="0 0" keyTimes="0" dur="2.61667s" begin="-15s" calcMode="discrete" fill="freeze"/><animateTransform attributeName="transform" type="translate" values="0 0" keyTimes="0" dur="0.25s" begin="-12.38333s" calcMode="discrete" repeatCount="indefinite"/><g transform="translate(0 0)"><animateTransform attributeName="transform" type="translate" values="0 0" keyTimes="0" dur="2.61667s" begin="-15s" calcMode="discrete" fill="freeze"/><animateTransform attributeName="transform" type="translate" values="0 0" keyTimes="0" dur="0.25s" begin="-12.38333s" calcMode="discrete" repeatCount="indefinite"/><rect x="14" y="17" width="2" height="6" fill="#D87656"></rect><rect x="24" y="17" width="2" height="6" fill="#D87656"></rect></g><g transform="translate(0 0)"><animateTransform attributeName="transform" type="translate" values="0 0" keyTimes="0" dur="2.61667s" begin="-15s" calcMode="discrete" fill="freeze"/><animateTransform attributeName="transform" type="translate" values="0 0" keyTimes="0" dur="0.25s" begin="-12.38333s" calcMode="discrete" repeatCount="indefinite"/><rect x="18" y="17" width="2" height="6" fill="#D87656"></rect><rect x="28" y="17" width="2" height="6" fill="#D87656"></rect></g><g transform="translate(0 0)"><animateTransform attributeName="transform" type="translate" values="0 0" keyTimes="0" dur="2.61667s" begin="-15s" calcMode="discrete" fill="freeze"/><animateTransform attributeName="transform" type="translate" values="0 0" keyTimes="0" dur="0.25s" begin="-12.38333s" calcMode="discrete" repeatCount="indefinite"/><g visibility="hidden"><animate attributeName="visibility" values="visible;hidden;visible;hidden;visible;hidden" keyTimes="0;0.07643;0.15287;0.2293;0.30573;0.38217" dur="2.61667s" begin="-15s" calcMode="discrete" fill="freeze"/><animate attributeName="visibility" values="hidden" keyTimes="0" dur="0.25s" begin="-12.38333s" calcMode="discrete" repeatCount="indefinite"/><rect x="14" y="7" width="16" height="4" fill="#D87656"></rect><rect x="10" y="11" width="20" height="4" fill="#D87656"></rect><rect x="14" y="15" width="16" height="4" fill="#D87656"></rect><rect x="30" y="5" width="4" height="6" fill="#D87656"></rect></g><g visibility="hidden"><animate attributeName="visibility" values="hidden;visible;hidden;visible;hidden;visible;hidden" keyTimes="0;0.07643;0.15287;0.2293;0.30573;0.38217;0.4586" dur="2.61667s" begin="-15s" calcMode="discrete" fill="freeze"/><animate attributeName="visibility" values="hidden" keyTimes="0" dur="0.25s" begin="-12.38333s" calcMode="discrete" repeatCount="indefinite"/><rect x="14" y="7" width="16" height="4" fill="#D87656"></rect><rect x="10" y="11" width="20" height="4" fill="#D87656"></rect><rect x="14" y="15" width="16" height="4" fill="#D87656"></rect><rect x="30" y="8" width="4" height="3" fill="#D87656"></rect><rect x="32" y="4" width="3" height="4" fill="#D87656"></rect></g><g visibility="hidden"><animate attributeName="visibility" values="visible;hidden" keyTimes="0;0.4586" dur="2.61667s" begin="-15s" calcMode="discrete" fill="freeze"/><animate attributeName="visibility" values="hidden" keyTimes="0" dur="0.25s" begin="-12.38333s" calcMode="discrete" repeatCount="indefinite"/><rect x="21" y="-2" width="2" height="1" fill="#5a3e2b"></rect><rect x="18" y="-1" width="8" height="1" fill="#e5484d"></rect><rect x="14" y="0" width="16" height="1" fill="#e5484d"></rect><rect x="11" y="1" width="22" height="1" fill="#e5484d"></rect><rect x="10" y="2" width="24" height="1" fill="#e5484d"></rect><rect x="15" y="0" width="2" height="3" fill="#ff8a8f"></rect><rect x="27" y="0" width="2" height="3" fill="#ff8a8f"></rect><rect x="10" y="3" width="2" height="1" fill="#e5484d"></rect><rect x="14" y="3" width="2" height="1" fill="#e5484d"></rect><rect x="18" y="3" width="2" height="1" fill="#e5484d"></rect><rect x="22" y="3" width="2" height="1" fill="#e5484d"></rect><rect x="26" y="3" width="2" height="1" fill="#e5484d"></rect><rect x="30" y="3" width="2" height="1" fill="#e5484d"></rect><rect x="21" y="3" width="2" height="3" fill="#5a3e2b"></rect></g><g transform="translate(0 0)"><animateTransform attributeName="transform" type="translate" values="0 0" keyTimes="0" dur="2.61667s" begin="-15s" calcMode="discrete" fill="freeze"/><animateTransform attributeName="transform" type="translate" values="0 0" keyTimes="0" dur="0.25s" begin="-12.38333s" calcMode="discrete" repeatCount="indefinite"/><g visibility="hidden"><animate attributeName="visibility" values="visible;hidden" keyTimes="0;0.4586" dur="2.61667s" begin="-15s" calcMode="discrete" fill="freeze"/><animate attributeName="visibility" values="hidden" keyTimes="0" dur="0.25s" begin="-12.38333s" calcMode="discrete" repeatCount="indefinite"/><rect x="15" y="10" width="1" height="1" fill="#000000"></rect><rect x="16" y="9" width="2" height="1" fill="#000000"></rect><rect x="18" y="10" width="1" height="1" fill="#000000"></rect><rect x="25" y="10" width="1" height="1" fill="#000000"></rect><rect x="26" y="9" width="2" height="1" fill="#000000"></rect><rect x="28" y="10" width="1" height="1" fill="#000000"></rect></g></g></g></g></g><g visibility="visible"><animate attributeName="visibility" values="hidden" keyTimes="0" dur="2.61667s" begin="-15s" calcMode="discrete" fill="freeze"/><animate attributeName="visibility" values="visible" keyTimes="0" dur="0.25s" begin="-12.38333s" calcMode="discrete" repeatCount="indefinite"/><rect x="21" y="-2" width="2" height="1" fill="#5a3e2b"></rect><rect x="17" y="-1" width="10" height="1" fill="#e5484d"></rect><rect x="14" y="0" width="16" height="1" fill="#e5484d"></rect><rect x="11" y="1" width="22" height="1" fill="#e5484d"></rect><rect x="9" y="2" width="26" height="1" fill="#e5484d"></rect><rect x="14" y="0" width="2" height="3" fill="#ff8a8f"></rect><rect x="28" y="0" width="2" height="3" fill="#ff8a8f"></rect><rect x="9" y="3" width="2" height="1" fill="#e5484d"></rect><rect x="13" y="3" width="2" height="1" fill="#e5484d"></rect><rect x="17" y="3" width="2" height="1" fill="#e5484d"></rect><rect x="21" y="3" width="2" height="1" fill="#e5484d"></rect><rect x="25" y="3" width="2" height="1" fill="#e5484d"></rect><rect x="29" y="3" width="2" height="1" fill="#e5484d"></rect><rect x="33" y="3" width="2" height="1" fill="#e5484d"></rect><rect x="21" y="3" width="2" height="3" fill="#5a3e2b"></rect></g></g></g></svg></svg></svg></svg>